<svg viewBox="0 0 134 34" fill="none" xmlns="http://www.w3.org/2000/svg"><path fill-rule="evenodd" clip-rule="evenodd" d="M29.822 24.747c5.298-9.286 3.525-18.464-4.088-22.558C17.322-2.335 6.355.127 1.628 9.817-1.628 16.489-.15 28.084 7.426 32.24c7.575 4.154 17.74.668 22.396-7.494zM27.25 14.88c.258-1.868-.206-4.146-1.696-5.648l-.022-.02c-2.863-3.053-6.838-3.244-9.356-3.185-2.783.067-4.781.934-6.416 1.738-1.427.702-2.713 1.909-3.235 2.508-.333.382-.899 1.171-.595 1.878.25.587 1.188.549 1.541.298.186-.132.378-.3.589-.486.188-.166.392-.345.62-.523 2.15-1.678 4.054-2.734 8.492-2.734 4.438 0 6.842 2.611 6.842 4.942 0 2.332-1.167 3.915-3.374 4.949-1.091.51-2.259.906-3.729.96.107-2.26.162-4.399.162-4.399.005-.268.018-.527.03-.775.058-1.257.103-2.211-.86-2.394-1.153-.218-3.275-.003-3.314 1.238-.052-.185.218 10.17.267 10.373l.02.238c.022.263.12.494.295.68.174.181.456.295.71.322.04.004.08.007.119.007.241 0 .581-.04.923-.132.433-.116.868-.315 1.118-.624.128-.157.232-.308.286-.588.038-.19.11-1.393.13-1.742 2.334-.02 4.706-.433 6.51-1.471 2.277-1.307 3.646-3.279 3.943-5.41zM15.175 26.04c.262.048.522.165.754.335.42.308.672.79.677 1.283.004.424-.185.804-.532 1.073-.299.226-.683.349-1.11.349h-.002c-.196 0-.392-.027-.583-.077-.331-.09-.598-.238-.772-.43a1.307 1.307 0 01-.306-.668c-.07-.415.04-.845.304-1.203.317-.432.803-.689 1.298-.689.09 0 .183.01.271.026z" fill="#05112A"/><path d="M50.378 13.927c0 1.54-.504 2.72-1.513 3.54-1.009.82-2.444 1.231-4.307 1.231h-1.533v5.518h-2.411V9.468h4.247c1.842 0 3.22.377 4.135 1.13.922.753 1.382 1.863 1.382 3.329zm-7.353 2.744h1.28c1.238 0 2.146-.216 2.724-.646.579-.43.868-1.103.868-2.017 0-.848-.26-1.48-.777-1.897-.518-.417-1.325-.625-2.42-.625h-1.675v5.184zM57.944 24.417c-1.735 0-3.094-.504-4.076-1.513-.975-1.015-1.462-2.41-1.462-4.186 0-1.822.454-3.255 1.361-4.297.908-1.042 2.156-1.563 3.743-1.563 1.473 0 2.636.447 3.49 1.341.854.895 1.28 2.125 1.28 3.692v1.281h-7.433c.033 1.083.326 1.917.877 2.502.552.578 1.329.867 2.33.867.66 0 1.271-.06 1.836-.181a9.892 9.892 0 001.836-.626v1.927a7.28 7.28 0 01-1.755.585c-.592.114-1.268.171-2.027.171zm-.434-9.764c-.753 0-1.359.239-1.816.716-.45.478-.72 1.174-.807 2.088h5.064c-.014-.921-.236-1.617-.666-2.088-.43-.477-1.022-.716-1.775-.716zM71.954 24.216l-.474-1.554h-.08c-.538.68-1.08 1.143-1.624 1.392-.545.242-1.245.363-2.099.363-1.096 0-1.953-.296-2.572-.887-.612-.592-.918-1.43-.918-2.512 0-1.15.427-2.017 1.281-2.602.855-.585 2.156-.905 3.904-.959l1.927-.06v-.595c0-.713-.168-1.244-.505-1.594-.33-.357-.844-.535-1.543-.535-.572 0-1.12.084-1.644.252-.525.169-1.029.367-1.513.596l-.767-1.695a8.1 8.1 0 011.987-.716 8.971 8.971 0 012.038-.252c1.419 0 2.488.309 3.208.928.726.618 1.089 1.59 1.089 2.915v7.515h-1.695zm-3.53-1.614c.86 0 1.55-.239 2.068-.716.524-.485.787-1.16.787-2.028v-.968l-1.433.06c-1.116.04-1.93.229-2.44.565-.505.33-.757.837-.757 1.523 0 .498.148.884.444 1.16.295.27.74.404 1.33.404zM82.186 12.858c.477 0 .87.033 1.18.1l-.232 2.21a4.48 4.48 0 00-1.049-.121c-.948 0-1.718.309-2.31.928-.585.618-.877 1.422-.877 2.41v5.83h-2.37V13.06h1.855l.313 1.967h.12c.37-.665.852-1.193 1.443-1.583a3.464 3.464 0 011.927-.585zM93.584 21.038c0 1.09-.396 1.927-1.19 2.512-.793.578-1.93.867-3.41.867-1.485 0-2.68-.225-3.58-.676v-2.047c1.311.605 2.532.908 3.661.908 1.46 0 2.19-.44 2.19-1.322 0-.282-.081-.518-.243-.706-.161-.188-.427-.383-.797-.585-.37-.202-.884-.43-1.543-.686-1.284-.497-2.155-.995-2.613-1.493-.45-.497-.675-1.143-.675-1.936 0-.955.383-1.695 1.15-2.22.773-.53 1.822-.796 3.147-.796 1.311 0 2.552.265 3.722.796l-.767 1.786c-1.204-.498-2.216-.746-3.036-.746-1.25 0-1.876.356-1.876 1.069 0 .35.161.645.484.887.33.242 1.042.575 2.138.999.922.356 1.59.682 2.008.978.417.296.726.64.928 1.03.202.383.302.843.302 1.381zM106.267 18.617c0 1.823-.467 3.245-1.402 4.267-.935 1.022-2.236 1.533-3.904 1.533-1.042 0-1.963-.235-2.763-.706-.8-.47-1.416-1.146-1.846-2.027-.43-.881-.646-1.903-.646-3.067 0-1.809.464-3.22 1.392-4.236.928-1.016 2.236-1.523 3.924-1.523 1.614 0 2.891.52 3.833 1.563.941 1.036 1.412 2.434 1.412 4.196zm-8.12 0c0 2.576.952 3.864 2.855 3.864 1.883 0 2.824-1.288 2.824-3.864 0-2.548-.948-3.823-2.845-3.823-.995 0-1.718.33-2.168.989-.444.659-.666 1.604-.666 2.834zM118.385 24.216h-2.381v-6.86c0-.86-.174-1.503-.524-1.926-.343-.424-.891-.636-1.644-.636-1.002 0-1.735.296-2.199.888-.464.592-.696 1.584-.696 2.976v5.558h-2.371V13.059h1.856l.333 1.463h.121c.336-.531.814-.941 1.433-1.23.618-.29 1.304-.434 2.057-.434 2.677 0 4.015 1.361 4.015 4.085v7.273zM122.924 17.47v2.107h4.295v4.316h2.158v-4.316h4.307V17.47h-4.307v-4.337h-2.158v4.337h-4.295z" fill="#05112A"/></svg>