<svg viewBox="0 0 55 26" fill="none" xmlns="http://www.w3.org/2000/svg"><path d="M.896 19V2.2h3.648l4.992 8.424h.096L14.624 2.2h3.6V19h-3.168V7.408h-.096l-5.28 8.784h-.24L4.16 7.336h-.096V19H.896zm26.435.216c-1.952 0-3.456-.592-4.512-1.776-1.04-1.184-1.56-2.736-1.56-4.656 0-1.92.528-3.48 1.584-4.68 1.056-1.2 2.552-1.8 4.488-1.8 1.92 0 3.408.6 4.464 1.8 1.056 1.2 1.584 2.76 1.584 4.68 0 1.904-.528 3.456-1.584 4.656-1.04 1.184-2.528 1.776-4.464 1.776zm-2.784-6.432c0 2.4.928 3.6 2.784 3.6 1.856 0 2.784-1.2 2.784-3.6 0-2.432-.928-3.648-2.784-3.648-1.856 0-2.784 1.216-2.784 3.648zm13.27-7.824c-.656 0-1.152-.168-1.488-.504-.336-.352-.504-.84-.504-1.464 0-.592.168-1.056.504-1.392.336-.352.832-.528 1.488-.528.624 0 1.112.176 1.464.528.352.336.528.8.528 1.392 0 .624-.176 1.112-.528 1.464-.352.336-.84.504-1.464.504zm-2.664 19.752a6.527 6.527 0 01-1.488-.168v-2.88c.32.048.624.072.912.072 1.056 0 1.584-.584 1.584-1.752V6.52h3.216v14.136c0 1.312-.384 2.312-1.152 3-.768.704-1.792 1.056-3.072 1.056zm12.684-5.496c-1.952 0-3.456-.592-4.512-1.776-1.04-1.184-1.56-2.736-1.56-4.656 0-1.92.528-3.48 1.584-4.68 1.056-1.2 2.552-1.8 4.488-1.8 1.92 0 3.408.6 4.464 1.8 1.056 1.2 1.584 2.76 1.584 4.68 0 1.904-.528 3.456-1.584 4.656-1.04 1.184-2.528 1.776-4.464 1.776zm-2.784-6.432c0 2.4.928 3.6 2.784 3.6 1.856 0 2.784-1.2 2.784-3.6 0-2.432-.928-3.648-2.784-3.648-1.856 0-2.784 1.216-2.784 3.648z" fill="#F7F9FD"/><path d="M.896 19h-.5v.5h.5V19zm0-16.8v-.5h-.5v.5h.5zm3.648 0l.43-.255L4.83 1.7h-.285v.5zm4.992 8.424l-.43.255.145.245h.285v-.5zm.096 0v.5h.285l.145-.245-.43-.255zM14.624 2.2v-.5h-.285l-.145.245.43.255zm3.6 0h.5v-.5h-.5v.5zm0 16.8v.5h.5V19h-.5zm-3.168 0h-.5v.5h.5V19zm0-11.592h.5v-.5h-.5v.5zm-.096 0v-.5h-.283l-.146.242.429.258zm-5.28 8.784v.5h.283l.146-.242-.429-.258zm-.24 0l-.43.256.146.244h.284v-.5zM4.16 7.336l.43-.256-.146-.244H4.16v.5zm-.096 0v-.5h-.5v.5h.5zm0 11.664v.5h.5V19h-.5zm-2.668 0V2.2h-1V19h1zm-.5-16.3h3.648v-1H.896v1zm3.218-.245l4.992 8.424.86-.51-4.992-8.424-.86.51zm5.422 8.669h.096v-1h-.096v1zm.526-.245l4.992-8.424-.86-.51-4.992 8.424.86.51zM14.624 2.7h3.6v-1h-3.6v1zm3.1-.5V19h1V2.2h-1zm.5 16.3h-3.168v1h3.168v-1zm-2.668.5V7.408h-1V19h1zm-.5-12.092h-.096v1h.096v-1zm-.524.242l-5.28 8.784.856.516 5.28-8.784-.857-.516zM9.68 15.692h-.24v1h.24v-1zm.19.244L4.59 7.08l-.86.512 5.28 8.856.86-.512zm-5.71-9.1h-.096v1h.096v-1zm-.596.5V19h1V7.336h-1zm.5 11.164H.896v1h3.168v-1zm18.755-1.06l-.375.33.002.003.373-.333zm.024-9.336l.375.33-.375-.33zm8.952 9.336l-.375-.33.375.33zm-4.464 1.276c-1.845 0-3.199-.555-4.139-1.609l-.746.666c1.172 1.314 2.826 1.943 4.885 1.943v-1zm-4.136-1.606c-.943-1.074-1.436-2.5-1.436-4.326h-1c0 2.014.548 3.692 1.684 4.986l.752-.66zm-1.436-4.326c0-1.824.5-3.259 1.46-4.35l-.751-.66c-1.152 1.309-1.709 2.994-1.709 5.01h1zm1.46-4.35c.94-1.07 2.287-1.63 4.112-1.63v-1c-2.046 0-3.692.64-4.863 1.97l.75.66zm4.112-1.63c1.808 0 3.147.56 4.089 1.63l.75-.66c-1.17-1.33-2.807-1.97-4.839-1.97v1zm4.089 1.63c.96 1.091 1.46 2.526 1.46 4.35h1c0-2.016-.558-3.701-1.71-5.01l-.75.66zm1.46 4.35c0 1.807-.5 3.234-1.46 4.326l.75.66c1.152-1.308 1.71-2.985 1.71-4.986h-1zm-1.46 4.326c-.924 1.052-2.261 1.606-4.089 1.606v1c2.044 0 3.684-.63 4.84-1.946l-.752-.66zm-7.373-4.326c0 1.25.24 2.28.8 3.006.58.75 1.44 1.094 2.484 1.094v-1c-.811 0-1.344-.256-1.692-.706-.367-.474-.592-1.245-.592-2.394h-1zm3.284 4.1c1.044 0 1.904-.344 2.484-1.094.56-.726.8-1.755.8-3.006h-1c0 1.15-.224 1.92-.591 2.394-.348.45-.881.706-1.693.706v1zm3.284-4.1c0-1.266-.239-2.306-.798-3.04-.58-.758-1.439-1.108-2.486-1.108v1c.81 0 1.342.258 1.69.715.37.483.594 1.266.594 2.433h1zm-3.284-4.148c-1.047 0-1.906.35-2.485 1.109-.56.733-.799 1.774-.799 3.039h1c0-1.167.225-1.95.594-2.433.349-.457.881-.715 1.69-.715v-1zm8.998-4.18l-.361.345.008.009.353-.354zm0-2.856l.354.354.008-.009-.362-.345zm2.952 0l-.353.354.008.008.345-.362zm0 2.856l.346.362.008-.008-.354-.354zm-5.616 20.088h-.5v.397l.387.09.113-.487zm0-2.88l.074-.495-.574-.086v.581h.5zM36.161 6.52v-.5h-.5v.5h.5zm3.216 0h.5v-.5h-.5v.5zm-1.152 17.136l-.333-.372-.005.003.338.369zM37.817 4.46c-.575 0-.923-.146-1.134-.358l-.707.708c.46.46 1.104.65 1.841.65v-1zm-1.126-.35c-.224-.234-.366-.585-.366-1.118h-1c0 .715.195 1.34.643 1.81l.723-.691zm-.366-1.118c0-.494.137-.818.358-1.038l-.707-.708c-.452.452-.65 1.056-.65 1.746h1zm.366-1.047c.212-.222.558-.373 1.126-.373v-1c-.743 0-1.39.201-1.85.683l.724.69zm1.126-.373c.527 0 .875.146 1.11.382l.708-.708c-.468-.468-1.097-.674-1.818-.674v1zm1.119.39c.232.221.373.543.373 1.03h1c0-.697-.21-1.303-.682-1.754l-.691.724zm.373 1.03c0 .527-.145.875-.381 1.11l.707.708c.468-.469.674-1.097.674-1.818h-1zm-.373 1.102c-.235.225-.586.366-1.119.366v1c.715 0 1.34-.195 1.81-.642l-.691-.724zm-3.783 20.118c-.475 0-.933-.052-1.374-.155l-.227.974a7.029 7.029 0 001.601.181v-1zm-.988.332v-2.88h-1v2.88h1zm-.574-2.386c.342.052.67.078.986.078v-1c-.26 0-.54-.022-.838-.067l-.148.99zm.986.078c.62 0 1.171-.173 1.56-.603.379-.42.524-1 .524-1.649h-1c0 .519-.118.814-.267.979-.14.154-.38.273-.817.273v1zm2.084-2.252V6.52h-1v13.464h1zm-.5-12.964h3.216v-1h-3.216v1zm2.716-.5v14.136h1V6.52h-1zm0 14.136c0 1.211-.35 2.059-.985 2.628l.667.744c.901-.807 1.318-1.96 1.318-3.372h-1zm-.99 2.631c-.656.602-1.549.925-2.734.925v1c1.375 0 2.53-.38 3.41-1.187l-.676-.738zm5.438-5.847l-.376.33.003.003.373-.333zm.024-9.336l.375.33-.375-.33zm8.952 9.336l-.375-.33.375.33zm-4.464 1.276c-1.845 0-3.199-.555-4.139-1.609l-.746.666c1.172 1.314 2.826 1.943 4.885 1.943v-1zm-4.136-1.606c-.944-1.074-1.436-2.5-1.436-4.326h-1c0 2.014.548 3.692 1.684 4.986l.752-.66zm-1.436-4.326c0-1.824.5-3.259 1.46-4.35l-.751-.66c-1.152 1.309-1.709 2.994-1.709 5.01h1zm1.46-4.35c.94-1.07 2.287-1.63 4.112-1.63v-1c-2.047 0-3.693.64-4.863 1.97l.75.66zm4.112-1.63c1.808 0 3.147.56 4.089 1.63l.75-.66c-1.17-1.33-2.807-1.97-4.839-1.97v1zm4.089 1.63c.96 1.091 1.459 2.526 1.459 4.35h1c0-2.016-.557-3.701-1.709-5.01l-.75.66zm1.459 4.35c0 1.807-.498 3.234-1.46 4.326l.751.66c1.151-1.308 1.709-2.985 1.709-4.986h-1zm-1.46 4.326c-.923 1.052-2.26 1.606-4.088 1.606v1c2.044 0 3.683-.63 4.84-1.946l-.752-.66zm-7.372-4.326c0 1.25.24 2.28.8 3.006.58.75 1.44 1.094 2.484 1.094v-1c-.812 0-1.344-.256-1.693-.706-.366-.474-.591-1.245-.591-2.394h-1zm3.284 4.1c1.044 0 1.904-.344 2.483-1.094.562-.726.801-1.755.801-3.006h-1c0 1.15-.225 1.92-.592 2.394-.348.45-.88.706-1.692.706v1zm3.284-4.1c0-1.266-.239-2.306-.799-3.04-.579-.758-1.438-1.108-2.485-1.108v1c.81 0 1.342.258 1.69.715.369.483.594 1.266.594 2.433h1zm-3.284-4.148c-1.047 0-1.906.35-2.486 1.109-.559.733-.798 1.774-.798 3.039h1c0-1.167.225-1.95.594-2.433.348-.457.88-.715 1.69-.715v-1z" fill="#F7F9FD"/></svg>