<svg width="134" height="35" viewBox="0 0 134 35" fill="none" xmlns="http://www.w3.org/2000/svg">
<path fill-rule="evenodd" clip-rule="evenodd" d="M29.8221 24.9659C35.1199 15.6794 33.3471 6.50171 25.7338 2.40812C17.3217 -2.11613 6.35503 0.34546 1.62775 10.0354C-1.62826 16.7073 -0.149786 28.3024 7.42635 32.4595C15.0013 36.6143 25.1669 33.1282 29.8221 24.9659ZM27.2497 15.0981C27.5079 13.2292 27.0443 10.9513 25.5538 9.44959L25.5322 9.42919C22.6689 6.37713 18.6935 6.1856 16.1761 6.24453C13.3933 6.3114 11.3948 7.17839 9.7602 7.98306C8.33337 8.68459 7.04705 9.89159 6.5246 10.4911C6.19192 10.8731 5.62623 11.6618 5.93009 12.369C6.17991 12.9561 7.11792 12.9176 7.47102 12.6671C7.65695 12.5348 7.84892 12.3661 8.06003 12.1805C8.24848 12.0149 8.45218 11.8358 8.68046 11.6573C10.8291 9.97999 12.734 8.92372 17.1718 8.92372C21.6096 8.92372 24.0141 11.5349 24.0141 13.8662C24.0141 16.1974 22.8467 17.7807 20.6404 18.8143C19.5486 19.3254 18.3812 19.721 16.9112 19.7742C17.0181 17.5144 17.0733 15.3758 17.0733 15.3758C17.0785 15.1079 17.0907 14.8483 17.1023 14.6005C17.1614 13.3434 17.2063 12.3897 16.2422 12.207C15.0904 11.9882 12.9682 12.2036 12.9285 13.4446C12.8769 13.2598 13.1471 23.614 13.1964 23.818L13.2156 24.056C13.2384 24.3189 13.3369 24.5501 13.511 24.7348C13.6852 24.9173 13.9674 25.0306 14.2209 25.0578C14.2605 25.0612 14.3001 25.0646 14.3398 25.0646C14.5812 25.0646 14.9211 25.0238 15.2634 24.9332C15.6957 24.8164 16.1305 24.6181 16.3815 24.3087C16.5088 24.1523 16.6133 24.0004 16.6674 23.7205C16.7046 23.5301 16.7779 22.3276 16.7971 21.9786C19.1307 21.9582 21.5027 21.5456 23.3079 20.5075C25.5839 19.2008 26.953 17.2288 27.2497 15.0981ZM15.1745 26.2569C15.4375 26.3056 15.6969 26.4224 15.9287 26.5924H15.9287C16.3491 26.9006 16.6014 27.3823 16.6061 27.8753C16.6097 28.3003 16.4212 28.6799 16.0741 28.9485C15.775 29.1752 15.3907 29.2976 14.9631 29.2976H14.9619C14.7661 29.2976 14.5704 29.2704 14.3794 29.2205C14.0479 29.131 13.7813 28.9825 13.6071 28.7899C13.451 28.6187 13.3465 28.3887 13.3009 28.1223C13.2312 27.7075 13.3405 27.278 13.6047 26.9199C13.9218 26.4881 14.4082 26.2308 14.903 26.2308C14.9931 26.2308 15.0856 26.2399 15.1745 26.2569Z" fill="#FEFEFE"/>
<path d="M50.3785 14.1455C50.3785 15.6855 49.8741 16.8657 48.8654 17.6861C47.8567 18.5065 46.421 18.9167 44.5583 18.9167H43.0251V24.4343H40.6143V9.68707H44.8609C46.7035 9.68707 48.082 10.0637 48.9966 10.8168C49.9179 11.57 50.3785 12.6796 50.3785 14.1455ZM43.0251 16.8892H44.3061C45.5435 16.8892 46.4513 16.674 47.0296 16.2436C47.6079 15.8133 47.8971 15.1408 47.8971 14.2262C47.8971 13.3789 47.6382 12.7468 47.1204 12.3299C46.6026 11.9129 45.7956 11.7045 44.6995 11.7045H43.0251V16.8892Z" fill="#FEFEFE"/>
<path d="M57.9438 24.636C56.2088 24.636 54.8504 24.1317 53.8686 23.123C52.8935 22.1076 52.406 20.7122 52.406 18.9369C52.406 17.1145 52.8599 15.6821 53.7677 14.6398C54.6756 13.5975 55.923 13.0763 57.51 13.0763C58.9827 13.0763 60.1461 13.5235 61.0001 14.4179C61.8542 15.3123 62.2812 16.5429 62.2812 18.1097V19.3908H54.847C54.8807 20.4735 55.1732 21.3073 55.7246 21.8924C56.276 22.4707 57.0527 22.7599 58.0547 22.7599C58.7137 22.7599 59.3257 22.6993 59.8906 22.5783C60.4622 22.4505 61.0741 22.2421 61.7264 21.9529V23.8795C61.1481 24.1552 60.563 24.3502 59.9713 24.4646C59.3795 24.5789 58.7037 24.636 57.9438 24.636ZM57.51 14.8718C56.7569 14.8718 56.1516 15.1105 55.6944 15.588C55.2438 16.0654 54.9748 16.7614 54.8874 17.676H59.9511C59.9376 16.7547 59.7157 16.0587 59.2853 15.588C58.855 15.1105 58.2632 14.8718 57.51 14.8718Z" fill="#FEFEFE"/>
<path d="M71.9546 24.4343L71.4806 22.8809H71.3999C70.8619 23.5601 70.3205 24.0241 69.7758 24.2729C69.2311 24.515 68.5318 24.636 67.6777 24.636C66.5816 24.636 65.7242 24.3402 65.1056 23.7484C64.4936 23.1566 64.1876 22.3194 64.1876 21.2367C64.1876 20.0868 64.6147 19.2193 65.4687 18.6343C66.3227 18.0492 67.6239 17.7298 69.3724 17.676L71.299 17.6155V17.0203C71.299 16.3075 71.1309 15.7763 70.7946 15.4266C70.4651 15.0702 69.9507 14.892 69.2513 14.892C68.6797 14.892 68.1317 14.976 67.6071 15.1442C67.0826 15.3123 66.5783 15.5106 66.0941 15.7393L65.3275 14.0447C65.9327 13.7286 66.5951 13.4899 67.3146 13.3285C68.0342 13.1604 68.7133 13.0763 69.3522 13.0763C70.7711 13.0763 71.8403 13.3856 72.5599 14.0043C73.2861 14.623 73.6493 15.5947 73.6493 16.9195V24.4343H71.9546ZM68.4242 22.8204C69.2849 22.8204 69.9742 22.5817 70.492 22.1042C71.0166 21.62 71.2788 20.9442 71.2788 20.0767V19.1084L69.8465 19.1689C68.7302 19.2092 67.9165 19.3975 67.4054 19.7337C66.901 20.0633 66.6489 20.571 66.6489 21.2569C66.6489 21.7545 66.7968 22.1412 67.0927 22.4169C67.3886 22.6859 67.8324 22.8204 68.4242 22.8204Z" fill="#FEFEFE"/>
<path d="M82.1862 13.0763C82.6637 13.0763 83.0571 13.1099 83.3664 13.1772L83.1344 15.3862C82.7982 15.3055 82.4485 15.2652 82.0854 15.2652C81.1372 15.2652 80.3672 15.5745 79.7755 16.1932C79.1904 16.8119 78.8979 17.6155 78.8979 18.604V24.4343H76.5274V13.2781H78.3834L78.6961 15.245H78.8172C79.187 14.5793 79.6679 14.0514 80.2596 13.6614C80.8581 13.2713 81.5003 13.0763 82.1862 13.0763Z" fill="#FEFEFE"/>
<path d="M93.5846 21.2569C93.5846 22.3463 93.1878 23.1835 92.3943 23.7686C91.6008 24.3469 90.4643 24.636 88.9849 24.636C87.4987 24.636 86.3051 24.4108 85.404 23.9602V21.9125C86.7153 22.5178 87.9359 22.8204 89.0656 22.8204C90.5249 22.8204 91.2545 22.3799 91.2545 21.499C91.2545 21.2165 91.1738 20.9812 91.0124 20.7929C90.851 20.6046 90.5854 20.4096 90.2155 20.2078C89.8457 20.0061 89.3312 19.7775 88.6722 19.5219C87.3878 19.0243 86.5169 18.5267 86.0597 18.029C85.6091 17.5314 85.3838 16.8858 85.3838 16.0923C85.3838 15.1374 85.7671 14.3977 86.5338 13.8732C87.3071 13.3419 88.3561 13.0763 89.6809 13.0763C90.9922 13.0763 92.2329 13.3419 93.403 13.8732L92.6364 15.6586C91.4327 15.161 90.4206 14.9122 89.6002 14.9122C88.3494 14.9122 87.724 15.2686 87.724 15.9814C87.724 16.3311 87.8854 16.6269 88.2082 16.869C88.5377 17.1111 89.2505 17.444 90.3467 17.8677C91.2679 18.2241 91.937 18.5502 92.354 18.8461C92.7709 19.142 93.0802 19.4849 93.282 19.875C93.4837 20.2583 93.5846 20.7189 93.5846 21.2569Z" fill="#FEFEFE"/>
<path d="M106.267 18.836C106.267 20.6584 105.8 22.0807 104.865 23.1028C103.931 24.125 102.629 24.636 100.962 24.636C99.9192 24.636 98.998 24.4007 98.1977 23.93C97.3975 23.4592 96.7822 22.7834 96.3518 21.9025C95.9214 21.0215 95.7062 19.9994 95.7062 18.836C95.7062 17.0271 96.1702 15.6149 97.0982 14.5995C98.0262 13.584 99.3342 13.0763 101.022 13.0763C102.636 13.0763 103.914 13.5975 104.855 14.6398C105.797 15.6754 106.267 17.0741 106.267 18.836ZM98.1473 18.836C98.1473 21.4116 99.0988 22.6993 101.002 22.6993C102.885 22.6993 103.826 21.4116 103.826 18.836C103.826 16.2873 102.878 15.013 100.982 15.013C99.9865 15.013 99.2636 15.3425 98.813 16.0016C98.3692 16.6606 98.1473 17.6054 98.1473 18.836Z" fill="#FEFEFE"/>
<path d="M118.385 24.4343H116.005V17.5751C116.005 16.7144 115.83 16.0722 115.48 15.6485C115.137 15.2248 114.589 15.013 113.836 15.013C112.834 15.013 112.101 15.3089 111.637 15.9007C111.173 16.4925 110.941 17.4843 110.941 18.8764V24.4343H108.571V13.2781H110.427L110.759 14.7407H110.88C111.217 14.2094 111.694 13.7992 112.313 13.5101C112.932 13.2209 113.617 13.0763 114.371 13.0763C117.047 13.0763 118.385 14.4381 118.385 17.1616V24.4343Z" fill="#FEFEFE"/>
<path d="M122.925 17.6889V19.7961H127.22V24.1116H129.378V19.7961H133.684V17.6889H129.378V13.3521H127.22V17.6889H122.925Z" fill="#FEFEFE"/>
</svg>
